<svg xmlns="http://www.w3.org/2000/svg" xmlns:xlink="http://www.w3.org/1999/xlink" fill="#673ab7" height="800px" width="800px" version="1.2" baseProfile="tiny" id="Layer_1" viewBox="0 0 224 256" xml:space="preserve">
<g>
	<path d="M96.5,181.1c-3.5-6-6.5-11.2-6.5-22.2c0-11,3-16.2,6.5-22.2c3.2-5.4,6.7-11.5,7.8-21.5c0.1-0.8,0-1.7-0.2-2.4H92.3   c-0.1,0.3-0.2,0.7-0.2,1.1c-0.8,7.4-3.4,11.8-6.2,16.7c-3.8,6.6-8.2,14.1-8.2,28.4c0,14.3,4.4,21.8,8.2,28.4   c2.8,4.9,5.3,9.2,6.2,16.5c0.2,3.2,2.8,5.8,6.1,5.8c3.4,0,6.1-2.8,6.1-6.1c0-0.1,0-0.4,0-0.4C103.3,192.7,99.7,186.6,96.5,181.1z" fill="#673ab7"/>
	<path d="M55.8,153.6c0-11,3-16.2,6.5-22.2c2.9-4.9,6-10.3,7.4-18.6H57.2c-1.2,5-3.2,8.5-5.5,12.4c-3.8,6.6-8.2,14.1-8.2,28.3   c0,14.3,4.4,21.8,8.2,28.3c3.5,6,6.5,11.2,6.5,22.2c0,11-3,16.2-6.5,22.2c-2.8,4.8-5.9,10.1-7.3,18.2c-0.7,3.8,2.2,7.3,6,7.3h0   c3,0,5.5-2.2,6-5.1c1.1-5.9,3.3-9.8,5.9-14.2c3.8-6.6,8.2-14.1,8.2-28.4c0-14.3-4.4-21.8-8.2-28.3   C58.8,169.7,55.8,164.5,55.8,153.6z" fill="#673ab7"/>
	<path d="M145.2,121.6c0-3.3-0.3-6.2-0.8-8.8h-12.6c0,0,0,0.1,0,0.1c0.7,2.5,1.1,5.3,1.1,8.7c0,10.6-3.8,15.7-8.2,21.6   c-5,6.7-10.6,14.3-10.6,28.9c0,14.7,5.6,22.2,10.6,28.9c3.5,4.8,6.7,9,7.8,16.1c0.5,3,3,5.3,6.1,5.3h0c3.8,0,6.6-3.4,6.1-7.1   c-1.5-10.1-6-16.1-10-21.6c-4.4-5.9-8.2-11-8.2-21.6c0-10.6,3.8-15.7,8.2-21.6C139.6,143.8,145.2,136.2,145.2,121.6z" fill="#673ab7"/>
	<path d="M114.5,3.5c-45.2,0-81.9,31.3-81.9,69.9c0,6.4,1,12.6,2.9,18.4c1.8,5.7,7,9.6,13,9.6h132.2c5.9,0,11.1-3.9,13-9.6   c1.9-5.9,2.9-12.1,2.9-18.4C196.4,34.8,159.7,3.5,114.5,3.5z" fill="#673ab7"/>
	<path d="M188,153.6c0-14.7-5.6-22.2-10.6-28.9c-2.8-3.7-5.3-7.2-6.8-11.9H158c1.8,8.6,5.9,14.2,9.6,19.2c4.4,5.9,8.2,11,8.2,21.6   c0,10.6-3.8,15.7-8.2,21.6c-5,6.7-10.6,14.3-10.6,28.9c0,14.7,5.6,22.2,10.6,28.9c3.2,4.3,6,8.1,7.3,13.9c0.6,2.8,3.1,4.8,6,4.8h0   c4,0,6.9-3.7,6-7.6c-1.9-8.2-5.8-13.6-9.5-18.4c-4.4-5.9-8.2-11-8.2-21.6c0-10.6,3.8-15.7,8.2-21.6   C182.4,175.8,188,168.2,188,153.6z" fill="#673ab7"/>
</g>
</svg>